<svg width="54" height="54" viewBox="0 0 54 54" fill="none" xmlns="http://www.w3.org/2000/svg">
<path d="M29.2771 4.70018C32.8233 0.0239571 37.7534 0.00115967 37.7534 0.00115967C37.7534 0.00115967 38.4867 4.39761 34.9638 8.63279C31.2021 13.155 26.9265 12.415 26.9265 12.415C26.9265 12.415 26.1236 8.85846 29.2771 4.70018ZM27.3775 15.4947C29.2018 15.4947 32.5877 12.9858 36.995 12.9858C44.5813 12.9858 47.5657 18.3865 47.5657 18.3865C47.5657 18.3865 41.7287 21.3722 41.7287 28.617C41.7287 36.7898 49 39.6064 49 39.6064C49 39.6064 43.9171 53.9197 37.0515 53.9197C33.8981 53.9197 31.4466 51.7937 28.124 51.7937C24.7381 51.7937 21.3781 53.999 19.1897 53.999C12.9204 53.9992 5 40.4215 5 29.5073C5 18.7692 11.7041 13.1362 17.9922 13.1362C22.0801 13.1362 25.2523 15.4947 27.3775 15.4947Z" fill="white"/>
</svg>
