<svg width="88" height="88" viewBox="0 0 88 88" fill="none" xmlns="http://www.w3.org/2000/svg">
<path d="M72 0C63.164 0 56 7.164 56 16C56 27.428 72 44 72 44C72 44 88 27.428 88 16C88 7.164 80.836 0 72 0ZM40 8C26.9533 8 15.3843 14.3055 8.07812 24H8V24.1016C3.00136 30.7783 0 39.0367 0 48C0 70.056 17.944 88 40 88C62.056 88 80 70.056 80 48C80 47.72 79.9649 47.4479 79.9609 47.1719C79.0089 48.2319 78.2258 49.0667 77.7578 49.5547L70.7266 56.8672C69.4032 61.4469 67.063 65.5874 64 69.0781V64H52V48H28V40H36V28H44C46.356 28 48.4579 26.9638 49.9219 25.3438C48.7539 22.2197 48 19.048 48 16C48 13.588 48.3632 11.2663 49.0312 9.07031C46.1232 8.39431 43.108 8 40 8ZM72 10.2812C75.156 10.2812 77.7188 12.844 77.7188 16C77.7188 19.156 75.156 21.7188 72 21.7188C68.844 21.7188 66.2812 19.156 66.2812 16C66.2812 12.844 68.844 10.2812 72 10.2812ZM8.84375 40.8438L16 48L28 60V72H36V79.7266C20.2416 77.7474 8 64.2861 8 48C8 45.5358 8.31181 43.1484 8.84375 40.8438Z" fill="#FD7F00"/>
</svg>
